<svg width="1122" height="152" viewBox="0 0 1122 152" fill="none" xmlns="http://www.w3.org/2000/svg">
<mask id="path-1-outside-1_235_3" maskUnits="userSpaceOnUse" x="-1" y="-1" width="1125" height="155" fill="black">
<rect fill="white" x="-1" y="-1" width="1125" height="155"/>
<path d="M0.450001 2.99999H29.65V143H0.450001V2.99999ZM48.05 143H18.85V117H47.05C53.1833 117 58.9833 116.2 64.45 114.6C69.9167 112.867 74.7167 110.2 78.85 106.6C82.9833 103 86.1833 98.4667 88.45 93C90.85 87.4 92.05 80.7333 92.05 73C92.05 65.2667 90.85 58.6667 88.45 53.2C86.1833 47.6 82.9833 43 78.85 39.4C74.7167 35.8 69.9167 33.2 64.45 31.6C58.9833 29.8667 53.1833 29 47.05 29H18.85V2.99999H48.05C62.7167 2.99999 75.5167 5.86666 86.45 11.6C97.5167 17.3333 106.117 25.4667 112.25 36C118.383 46.4 121.45 58.7333 121.45 73C121.45 87.2667 118.383 99.6667 112.25 110.2C106.117 120.6 97.5167 128.667 86.45 134.4C75.5167 140.133 62.7167 143 48.05 143ZM162.014 143V118.8H232.614V143H162.014ZM162.014 27.2V2.99999H232.614V27.2H162.014ZM162.014 80.6V56.8H228.614V80.6H162.014ZM143.614 2.99999H171.214V143H143.614V2.99999ZM316.802 94.2L354.602 2.99999H387.802L316.802 151.2L245.802 2.99999H278.802L316.802 94.2ZM421.389 143V118.8H491.989V143H421.389ZM421.389 27.2V2.99999H491.989V27.2H421.389ZM421.389 80.6V56.8H487.989V80.6H421.389ZM402.989 2.99999H430.589V143H402.989V2.99999ZM520.177 2.99999H548.777V118H604.577V143H520.177V2.99999ZM637.103 73C637.103 81.9333 638.97 89.8667 642.703 96.8C646.436 103.733 651.57 109.2 658.103 113.2C664.636 117.2 672.236 119.2 680.903 119.2C689.57 119.2 697.17 117.2 703.703 113.2C710.236 109.2 715.303 103.733 718.903 96.8C722.636 89.8667 724.503 81.9333 724.503 73C724.503 64.0667 722.703 56.1333 719.103 49.2C715.503 42.2667 710.436 36.8 703.903 32.8C697.37 28.8 689.703 26.8 680.903 26.8C672.236 26.8 664.636 28.8 658.103 32.8C651.57 36.8 646.436 42.2667 642.703 49.2C638.97 56.1333 637.103 64.0667 637.103 73ZM606.903 73C606.903 62.3333 608.77 52.6 612.503 43.8C616.236 34.8667 621.436 27.1333 628.103 20.6C634.77 14.0667 642.57 9.06666 651.503 5.59999C660.57 1.99999 670.37 0.199991 680.903 0.199991C691.57 0.199991 701.37 1.99999 710.303 5.59999C719.236 9.06666 727.036 14.0667 733.703 20.6C740.503 27.1333 745.703 34.8667 749.303 43.8C753.036 52.6 754.903 62.3333 754.903 73C754.903 83.5333 753.036 93.3333 749.303 102.4C745.703 111.333 740.57 119.133 733.903 125.8C727.37 132.467 719.57 137.667 710.503 141.4C701.57 145 691.703 146.8 680.903 146.8C670.103 146.8 660.17 145 651.103 141.4C642.17 137.667 634.37 132.467 627.703 125.8C621.036 119.133 615.903 111.333 612.303 102.4C608.703 93.3333 606.903 83.5333 606.903 73ZM777.013 2.99999H805.613V143H777.013V2.99999ZM794.413 27.2V2.99999H822.213C833.279 2.99999 842.679 4.79999 850.413 8.39999C858.279 12 864.279 17.1333 868.413 23.8C872.546 30.4667 874.613 38.4 874.613 47.6C874.613 56.6667 872.546 64.6 868.413 71.4C864.279 78.0667 858.279 83.2 850.413 86.8C842.679 90.4 833.279 92.2 822.213 92.2H794.413V68H822.213C829.813 68 835.813 66.2667 840.213 62.8C844.613 59.3333 846.813 54.2667 846.813 47.6C846.813 40.8 844.613 35.7333 840.213 32.4C835.813 28.9333 829.813 27.2 822.213 27.2H794.413ZM915.139 143V118.8H985.739V143H915.139ZM915.139 27.2V2.99999H985.739V27.2H915.139ZM915.139 80.6V56.8H981.739V80.6H915.139ZM896.739 2.99999H924.339V143H896.739V2.99999ZM1045.73 77.8H1075.93L1121.53 143H1087.73L1045.73 77.8ZM1013.93 2.99999H1042.53V143H1013.93V2.99999ZM1031.33 27.4V2.99999H1060.93C1071.99 2.99999 1081.39 4.86666 1089.13 8.59999C1096.86 12.3333 1102.79 17.5333 1106.93 24.2C1111.06 30.8667 1113.13 38.6667 1113.13 47.6C1113.13 56.4 1111.06 64.2 1106.93 71C1102.79 77.6667 1096.86 82.8667 1089.13 86.6C1081.39 90.3333 1071.99 92.2 1060.93 92.2H1031.33V69.4H1059.13C1064.19 69.4 1068.53 68.6 1072.13 67C1075.86 65.2667 1078.73 62.8667 1080.73 59.8C1082.73 56.6 1083.73 52.8 1083.73 48.4C1083.73 44 1082.73 40.2667 1080.73 37.2C1078.73 34 1075.86 31.6 1072.13 30C1068.53 28.2667 1064.19 27.4 1059.13 27.4H1031.33Z"/>
</mask>
<path d="M0.450001 2.99999V1.99999H-0.549999V2.99999H0.450001ZM29.65 2.99999H30.65V1.99999H29.65V2.99999ZM29.65 143V144H30.65V143H29.65ZM0.450001 143H-0.549999V144H0.450001V143ZM18.85 143H17.85V144H18.85V143ZM18.85 117V116H17.85V117H18.85ZM64.45 114.6L64.7309 115.56L64.7416 115.557L64.7522 115.553L64.45 114.6ZM78.85 106.6L79.5068 107.354L79.5068 107.354L78.85 106.6ZM88.45 93L87.5308 92.6061L87.5263 92.617L88.45 93ZM88.45 53.2L87.5231 53.5752L87.5285 53.5887L87.5344 53.602L88.45 53.2ZM78.85 39.4L78.1932 40.1541L78.1932 40.1541L78.85 39.4ZM64.45 31.6L64.1478 32.5532L64.1584 32.5566L64.1691 32.5597L64.45 31.6ZM18.85 29H17.85V30H18.85V29ZM18.85 2.99999V1.99999H17.85V2.99999H18.85ZM86.45 11.6L85.9856 12.4856L85.99 12.4879L86.45 11.6ZM112.25 36L111.386 36.5032L111.389 36.508L112.25 36ZM112.25 110.2L113.111 110.708L113.114 110.703L112.25 110.2ZM86.45 134.4L85.99 133.512L85.9856 133.514L86.45 134.4ZM0.450001 3.99999H29.65V1.99999H0.450001V3.99999ZM28.65 2.99999V143H30.65V2.99999H28.65ZM29.65 142H0.450001V144H29.65V142ZM1.45 143V2.99999H-0.549999V143H1.45ZM48.05 142H18.85V144H48.05V142ZM19.85 143V117H17.85V143H19.85ZM18.85 118H47.05V116H18.85V118ZM47.05 118C53.2711 118 59.1663 117.188 64.7309 115.56L64.1691 113.64C58.8004 115.212 53.0955 116 47.05 116V118ZM64.7522 115.553C70.3433 113.78 75.2654 111.048 79.5068 107.354L78.1932 105.846C74.1679 109.352 69.49 111.953 64.1478 113.647L64.7522 115.553ZM79.5068 107.354C83.7657 103.645 87.0527 98.9807 89.3737 93.383L87.5263 92.617C85.3139 97.9526 82.201 102.355 78.1932 105.846L79.5068 107.354ZM89.3692 93.3939C91.8348 87.6408 93.05 80.8336 93.05 73H91.05C91.05 80.633 89.8652 87.1592 87.5309 92.6061L89.3692 93.3939ZM93.05 73C93.05 65.1674 91.8351 58.4229 89.3657 52.798L87.5344 53.602C89.8649 58.9104 91.05 65.3659 91.05 73H93.05ZM89.377 52.8248C87.0574 47.0942 83.7704 42.3594 79.5068 38.6459L78.1932 40.1541C82.1962 43.6406 85.3093 48.1058 87.5231 53.5752L89.377 52.8248ZM79.5068 38.6459C75.2602 34.9473 70.3307 32.2792 64.7309 30.6403L64.1691 32.5597C69.5027 34.1208 74.1731 36.6527 78.1932 40.1541L79.5068 38.6459ZM64.7522 30.6468C59.1813 28.8803 53.2788 28 47.05 28V30C53.0879 30 58.7854 30.853 64.1478 32.5532L64.7522 30.6468ZM47.05 28H18.85V30H47.05V28ZM19.85 29V2.99999H17.85V29H19.85ZM18.85 3.99999H48.05V1.99999H18.85V3.99999ZM48.05 3.99999C62.5852 3.99999 75.2202 6.84033 85.9856 12.4856L86.9144 10.7144C75.8132 4.89299 62.8481 1.99999 48.05 1.99999V3.99999ZM85.99 12.4879C96.8922 18.136 105.35 26.1377 111.386 36.5032L113.114 35.4968C106.883 24.7956 98.1412 16.5306 86.91 10.7121L85.99 12.4879ZM111.389 36.508C117.416 46.7282 120.45 58.8793 120.45 73H122.45C122.45 58.5874 119.351 46.0718 113.111 35.492L111.389 36.508ZM120.45 73C120.45 87.1203 117.416 99.3406 111.386 109.697L113.114 110.703C119.351 99.9928 122.45 87.413 122.45 73H120.45ZM111.389 109.692C105.354 119.925 96.8955 127.862 85.99 133.512L86.91 135.288C98.1378 129.471 106.879 121.275 113.111 110.708L111.389 109.692ZM85.9856 133.514C75.2202 139.16 62.5852 142 48.05 142V144C62.8481 144 75.8132 141.107 86.9144 135.286L85.9856 133.514ZM162.014 143H161.014V144H162.014V143ZM162.014 118.8V117.8H161.014V118.8H162.014ZM232.614 118.8H233.614V117.8H232.614V118.8ZM232.614 143V144H233.614V143H232.614ZM162.014 27.2H161.014V28.2H162.014V27.2ZM162.014 2.99999V1.99999H161.014V2.99999H162.014ZM232.614 2.99999H233.614V1.99999H232.614V2.99999ZM232.614 27.2V28.2H233.614V27.2H232.614ZM162.014 80.6H161.014V81.6H162.014V80.6ZM162.014 56.8V55.8H161.014V56.8H162.014ZM228.614 56.8H229.614V55.8H228.614V56.8ZM228.614 80.6V81.6H229.614V80.6H228.614ZM143.614 2.99999V1.99999H142.614V2.99999H143.614ZM171.214 2.99999H172.214V1.99999H171.214V2.99999ZM171.214 143V144H172.214V143H171.214ZM143.614 143H142.614V144H143.614V143ZM163.014 143V118.8H161.014V143H163.014ZM162.014 119.8H232.614V117.8H162.014V119.8ZM231.614 118.8V143H233.614V118.8H231.614ZM232.614 142H162.014V144H232.614V142ZM163.014 27.2V2.99999H161.014V27.2H163.014ZM162.014 3.99999H232.614V1.99999H162.014V3.99999ZM231.614 2.99999V27.2H233.614V2.99999H231.614ZM232.614 26.2H162.014V28.2H232.614V26.2ZM163.014 80.6V56.8H161.014V80.6H163.014ZM162.014 57.8H228.614V55.8H162.014V57.8ZM227.614 56.8V80.6H229.614V56.8H227.614ZM228.614 79.6H162.014V81.6H228.614V79.6ZM143.614 3.99999H171.214V1.99999H143.614V3.99999ZM170.214 2.99999V143H172.214V2.99999H170.214ZM171.214 142H143.614V144H171.214V142ZM144.614 143V2.99999H142.614V143H144.614ZM316.802 94.2L315.878 94.5846L316.804 96.8058L317.725 94.5829L316.802 94.2ZM354.602 2.99999V1.99999H353.934L353.678 2.6171L354.602 2.99999ZM387.802 2.99999L388.703 3.43205L389.389 1.99999H387.802V2.99999ZM316.802 151.2L315.9 151.632L316.802 153.515L317.703 151.632L316.802 151.2ZM245.802 2.99999V1.99999H244.214L244.9 3.43205L245.802 2.99999ZM278.802 2.99999L279.725 2.61538L279.468 1.99999H278.802V2.99999ZM317.725 94.5829L355.525 3.38288L353.678 2.6171L315.878 93.8171L317.725 94.5829ZM354.602 3.99999H387.802V1.99999H354.602V3.99999ZM386.9 2.56793L315.9 150.768L317.703 151.632L388.703 3.43205L386.9 2.56793ZM317.703 150.768L246.703 2.56793L244.9 3.43205L315.9 151.632L317.703 150.768ZM245.802 3.99999H278.802V1.99999H245.802V3.99999ZM277.878 3.38461L315.878 94.5846L317.725 93.8154L279.725 2.61538L277.878 3.38461ZM421.389 143H420.389V144H421.389V143ZM421.389 118.8V117.8H420.389V118.8H421.389ZM491.989 118.8H492.989V117.8H491.989V118.8ZM491.989 143V144H492.989V143H491.989ZM421.389 27.2H420.389V28.2H421.389V27.2ZM421.389 2.99999V1.99999H420.389V2.99999H421.389ZM491.989 2.99999H492.989V1.99999H491.989V2.99999ZM491.989 27.2V28.2H492.989V27.2H491.989ZM421.389 80.6H420.389V81.6H421.389V80.6ZM421.389 56.8V55.8H420.389V56.8H421.389ZM487.989 56.8H488.989V55.8H487.989V56.8ZM487.989 80.6V81.6H488.989V80.6H487.989ZM402.989 2.99999V1.99999H401.989V2.99999H402.989ZM430.589 2.99999H431.589V1.99999H430.589V2.99999ZM430.589 143V144H431.589V143H430.589ZM402.989 143H401.989V144H402.989V143ZM422.389 143V118.8H420.389V143H422.389ZM421.389 119.8H491.989V117.8H421.389V119.8ZM490.989 118.8V143H492.989V118.8H490.989ZM491.989 142H421.389V144H491.989V142ZM422.389 27.2V2.99999H420.389V27.2H422.389ZM421.389 3.99999H491.989V1.99999H421.389V3.99999ZM490.989 2.99999V27.2H492.989V2.99999H490.989ZM491.989 26.2H421.389V28.2H491.989V26.2ZM422.389 80.6V56.8H420.389V80.6H422.389ZM421.389 57.8H487.989V55.8H421.389V57.8ZM486.989 56.8V80.6H488.989V56.8H486.989ZM487.989 79.6H421.389V81.6H487.989V79.6ZM402.989 3.99999H430.589V1.99999H402.989V3.99999ZM429.589 2.99999V143H431.589V2.99999H429.589ZM430.589 142H402.989V144H430.589V142ZM403.989 143V2.99999H401.989V143H403.989ZM520.177 2.99999V1.99999H519.177V2.99999H520.177ZM548.777 2.99999H549.777V1.99999H548.777V2.99999ZM548.777 118H547.777V119H548.777V118ZM604.577 118H605.577V117H604.577V118ZM604.577 143V144H605.577V143H604.577ZM520.177 143H519.177V144H520.177V143ZM520.177 3.99999H548.777V1.99999H520.177V3.99999ZM547.777 2.99999V118H549.777V2.99999H547.777ZM548.777 119H604.577V117H548.777V119ZM603.577 118V143H605.577V118H603.577ZM604.577 142H520.177V144H604.577V142ZM521.177 143V2.99999H519.177V143H521.177ZM642.703 96.8L641.823 97.2741L641.823 97.2741L642.703 96.8ZM658.103 113.2L658.625 112.347L658.625 112.347L658.103 113.2ZM703.703 113.2L704.225 114.053L704.225 114.053L703.703 113.2ZM718.903 96.8L718.023 96.3259L718.019 96.3325L718.016 96.3392L718.903 96.8ZM719.103 49.2L718.216 49.6608L718.216 49.6608L719.103 49.2ZM703.903 32.8L703.381 33.6529L703.381 33.6529L703.903 32.8ZM658.103 32.8L658.625 33.6529L658.625 33.6529L658.103 32.8ZM642.703 49.2L643.584 49.6741L642.703 49.2ZM612.503 43.8L613.424 44.1906L613.426 44.1856L612.503 43.8ZM628.103 20.6L627.403 19.8858L627.403 19.8858L628.103 20.6ZM651.503 5.59999L651.865 6.53229L651.872 6.52941L651.503 5.59999ZM710.303 5.59999L709.929 6.52759L709.941 6.53226L710.303 5.59999ZM733.703 20.6L733.003 21.3142L733.01 21.3211L733.703 20.6ZM749.303 43.8L748.376 44.1738L748.379 44.1822L748.383 44.1905L749.303 43.8ZM749.303 102.4L748.378 102.019L748.376 102.026L749.303 102.4ZM733.903 125.8L733.196 125.093L733.189 125.1L733.903 125.8ZM710.503 141.4L710.877 142.328L710.884 142.325L710.503 141.4ZM651.103 141.4L650.718 142.323L650.726 142.326L650.734 142.329L651.103 141.4ZM627.703 125.8L626.996 126.507L626.996 126.507L627.703 125.8ZM612.303 102.4L611.374 102.769L611.376 102.774L612.303 102.4ZM636.103 73C636.103 82.0763 638.001 90.1764 641.823 97.2741L643.584 96.3259C639.939 89.5569 638.103 81.7904 638.103 73H636.103ZM641.823 97.2741C645.637 104.359 650.892 109.958 657.581 114.053L658.625 112.347C652.247 108.442 647.236 103.108 643.584 96.3259L641.823 97.2741ZM657.581 114.053C664.291 118.161 672.077 120.2 680.903 120.2V118.2C672.396 118.2 664.982 116.239 658.625 112.347L657.581 114.053ZM680.903 120.2C689.729 120.2 697.515 118.161 704.225 114.053L703.181 112.347C696.825 116.239 689.41 118.2 680.903 118.2V120.2ZM704.225 114.053C710.917 109.956 716.109 104.352 719.791 97.2608L718.016 96.3392C714.498 103.114 709.556 108.444 703.181 112.347L704.225 114.053ZM719.784 97.2741C723.605 90.1764 725.503 82.0763 725.503 73H723.503C723.503 81.7904 721.668 89.5569 718.023 96.3259L719.784 97.2741ZM725.503 73C725.503 63.9294 723.675 55.8341 719.991 48.7392L718.216 49.6608C721.732 56.4325 723.503 64.2039 723.503 73H725.503ZM719.991 48.7392C716.309 41.6477 711.117 36.0441 704.425 31.9471L703.381 33.6529C709.756 37.5559 714.698 42.8856 718.216 49.6608L719.991 48.7392ZM704.425 31.9471C697.713 27.8373 689.859 25.8 680.903 25.8V27.8C689.547 27.8 697.027 29.7627 703.381 33.6529L704.425 31.9471ZM680.903 25.8C672.077 25.8 664.291 27.8387 657.581 31.9471L658.625 33.6529C664.982 29.7612 672.396 27.8 680.903 27.8V25.8ZM657.581 31.9471C650.892 36.0422 645.637 41.6414 641.823 48.7259L643.584 49.6741C647.236 42.8919 652.247 37.5578 658.625 33.6529L657.581 31.9471ZM641.823 48.7259C638.001 55.8236 636.103 63.9237 636.103 73H638.103C638.103 64.2096 639.939 56.4431 643.584 49.6741L641.823 48.7259ZM607.903 73C607.903 62.452 609.749 52.8534 613.424 44.1905L611.583 43.4094C607.791 52.3465 605.903 62.2147 605.903 73H607.903ZM613.426 44.1856C617.11 35.3709 622.235 27.7505 628.803 21.3142L627.403 19.8858C620.638 26.5162 615.363 34.3624 611.58 43.4144L613.426 44.1856ZM628.803 21.3142C635.37 14.8783 643.054 9.95124 651.865 6.53226L651.141 4.66773C642.085 8.18208 634.169 13.2551 627.403 19.8858L628.803 21.3142ZM651.872 6.52941C660.812 2.97965 670.486 1.19999 680.903 1.19999V-0.800009C670.254 -0.800009 660.327 1.02034 651.134 4.67058L651.872 6.52941ZM680.903 1.19999C691.455 1.19999 701.127 2.98028 709.929 6.52751L710.677 4.67247C701.613 1.01971 691.684 -0.800009 680.903 -0.800009V1.19999ZM709.941 6.53226C718.752 9.95124 726.436 14.8783 733.003 21.3142L734.403 19.8858C727.637 13.2551 719.721 8.18208 710.665 4.66773L709.941 6.53226ZM733.01 21.3211C739.706 27.7544 744.827 35.3686 748.376 44.1738L750.231 43.4262C746.579 34.3647 741.3 26.5122 734.396 19.8789L733.01 21.3211ZM748.383 44.1905C752.058 52.8534 753.903 62.452 753.903 73H755.903C755.903 62.2147 754.015 52.3465 750.224 43.4094L748.383 44.1905ZM753.903 73C753.903 83.4125 752.058 93.0821 748.378 102.019L750.228 102.781C754.014 93.5846 755.903 83.6541 755.903 73H753.903ZM748.376 102.026C744.825 110.838 739.765 118.523 733.196 125.093L734.61 126.507C741.374 119.743 746.581 111.829 750.231 102.774L748.376 102.026ZM733.189 125.1C726.755 131.665 719.07 136.791 710.122 140.475L710.884 142.325C720.069 138.542 727.984 133.268 734.617 126.5L733.189 125.1ZM710.129 140.472C701.328 144.019 691.591 145.8 680.903 145.8V147.8C691.816 147.8 701.811 145.981 710.877 142.328L710.129 140.472ZM680.903 145.8C670.216 145.8 660.409 144.019 651.472 140.471L650.734 142.329C659.93 145.981 669.99 147.8 680.903 147.8V145.8ZM651.489 140.477C642.672 136.793 634.982 131.665 628.41 125.093L626.996 126.507C633.757 133.268 641.667 138.54 650.718 142.323L651.489 140.477ZM628.41 125.093C621.841 118.523 616.781 110.838 613.231 102.026L611.376 102.774C615.025 111.829 620.232 119.743 626.996 126.507L628.41 125.093ZM613.233 102.031C609.683 93.0908 607.903 83.4171 607.903 73H605.903C605.903 83.6495 607.723 93.5758 611.374 102.769L613.233 102.031ZM777.013 2.99999V1.99999H776.013V2.99999H777.013ZM805.613 2.99999H806.613V1.99999H805.613V2.99999ZM805.613 143V144H806.613V143H805.613ZM777.013 143H776.013V144H777.013V143ZM794.413 27.2H793.413V28.2H794.413V27.2ZM794.413 2.99999V1.99999H793.413V2.99999H794.413ZM850.413 8.39999L849.99 9.30659L849.996 9.3093L850.413 8.39999ZM868.413 23.8L869.262 23.2731L869.262 23.2731L868.413 23.8ZM868.413 71.4L869.262 71.927L869.267 71.9194L868.413 71.4ZM850.413 86.8L849.996 85.8907L849.99 85.8934L850.413 86.8ZM794.413 92.2H793.413V93.2H794.413V92.2ZM794.413 68V67H793.413V68H794.413ZM840.213 32.4L839.594 33.1855L839.601 33.1914L839.609 33.1971L840.213 32.4ZM777.013 3.99999H805.613V1.99999H777.013V3.99999ZM804.613 2.99999V143H806.613V2.99999H804.613ZM805.613 142H777.013V144H805.613V142ZM778.013 143V2.99999H776.013V143H778.013ZM795.413 27.2V2.99999H793.413V27.2H795.413ZM794.413 3.99999H822.213V1.99999H794.413V3.99999ZM822.213 3.99999C833.175 3.99999 842.422 5.78354 849.99 9.30657L850.835 7.49341C842.936 3.81644 833.383 1.99999 822.213 1.99999V3.99999ZM849.996 9.3093C857.703 12.8361 863.544 17.8447 867.563 24.3269L869.262 23.2731C865.015 16.4219 858.855 11.1639 850.829 7.49068L849.996 9.3093ZM867.563 24.3269C871.582 30.8097 873.613 38.5535 873.613 47.6H875.613C875.613 38.2465 873.51 30.1236 869.262 23.2731L867.563 24.3269ZM873.613 47.6C873.613 56.5095 871.583 64.258 867.558 70.8806L869.267 71.9194C873.508 64.942 875.613 56.8238 875.613 47.6H873.613ZM867.563 70.8731C863.544 77.3553 857.703 82.3639 849.996 85.8907L850.829 87.7093C858.855 84.0361 865.015 78.7781 869.262 71.9269L867.563 70.8731ZM849.99 85.8934C842.422 89.4164 833.175 91.2 822.213 91.2V93.2C833.383 93.2 842.936 91.3836 850.835 87.7066L849.99 85.8934ZM822.213 91.2H794.413V93.2H822.213V91.2ZM795.413 92.2V68H793.413V92.2H795.413ZM794.413 69H822.213V67H794.413V69ZM822.213 69C829.957 69 836.201 67.2334 840.831 63.5855L839.594 62.0145C835.424 65.2999 829.668 67 822.213 67V69ZM840.831 63.5855C845.519 59.8923 847.813 54.508 847.813 47.6H845.813C845.813 54.0253 843.706 58.7744 839.594 62.0145L840.831 63.5855ZM847.813 47.6C847.813 40.5677 845.524 35.1692 840.816 31.6029L839.609 33.1971C843.701 36.2974 845.813 41.0323 845.813 47.6H847.813ZM840.831 31.6145C836.201 27.9666 829.957 26.2 822.213 26.2V28.2C829.668 28.2 835.424 29.9001 839.594 33.1855L840.831 31.6145ZM822.213 26.2H794.413V28.2H822.213V26.2ZM915.139 143H914.139V144H915.139V143ZM915.139 118.8V117.8H914.139V118.8H915.139ZM985.739 118.8H986.739V117.8H985.739V118.8ZM985.739 143V144H986.739V143H985.739ZM915.139 27.2H914.139V28.2H915.139V27.2ZM915.139 2.99999V1.99999H914.139V2.99999H915.139ZM985.739 2.99999H986.739V1.99999H985.739V2.99999ZM985.739 27.2V28.2H986.739V27.2H985.739ZM915.139 80.6H914.139V81.6H915.139V80.6ZM915.139 56.8V55.8H914.139V56.8H915.139ZM981.739 56.8H982.739V55.8H981.739V56.8ZM981.739 80.6V81.6H982.739V80.6H981.739ZM896.739 2.99999V1.99999H895.739V2.99999H896.739ZM924.339 2.99999H925.339V1.99999H924.339V2.99999ZM924.339 143V144H925.339V143H924.339ZM896.739 143H895.739V144H896.739V143ZM916.139 143V118.8H914.139V143H916.139ZM915.139 119.8H985.739V117.8H915.139V119.8ZM984.739 118.8V143H986.739V118.8H984.739ZM985.739 142H915.139V144H985.739V142ZM916.139 27.2V2.99999H914.139V27.2H916.139ZM915.139 3.99999H985.739V1.99999H915.139V3.99999ZM984.739 2.99999V27.2H986.739V2.99999H984.739ZM985.739 26.2H915.139V28.2H985.739V26.2ZM916.139 80.6V56.8H914.139V80.6H916.139ZM915.139 57.8H981.739V55.8H915.139V57.8ZM980.739 56.8V80.6H982.739V56.8H980.739ZM981.739 79.6H915.139V81.6H981.739V79.6ZM896.739 3.99999H924.339V1.99999H896.739V3.99999ZM923.339 2.99999V143H925.339V2.99999H923.339ZM924.339 142H896.739V144H924.339V142ZM897.739 143V2.99999H895.739V143H897.739ZM1045.73 77.8V76.8H1043.89L1044.89 78.3415L1045.73 77.8ZM1075.93 77.8L1076.75 77.2269L1076.45 76.8H1075.93V77.8ZM1121.53 143V144H1123.45L1122.35 142.427L1121.53 143ZM1087.73 143L1086.89 143.542L1087.18 144H1087.73V143ZM1013.93 2.99999V1.99999H1012.93V2.99999H1013.93ZM1042.53 2.99999H1043.53V1.99999H1042.53V2.99999ZM1042.53 143V144H1043.53V143H1042.53ZM1013.93 143H1012.93V144H1013.93V143ZM1031.33 27.4H1030.33V28.4H1031.33V27.4ZM1031.33 2.99999V1.99999H1030.33V2.99999H1031.33ZM1089.13 8.59999L1088.69 9.50054L1088.69 9.50054L1089.13 8.59999ZM1106.93 24.2L1106.08 24.7269L1106.08 24.7269L1106.93 24.2ZM1106.93 71L1107.78 71.527L1107.78 71.5194L1106.93 71ZM1089.13 86.6L1088.69 85.6994L1088.69 85.6994L1089.13 86.6ZM1031.33 92.2H1030.33V93.2H1031.33V92.2ZM1031.33 69.4V68.4H1030.33V69.4H1031.33ZM1072.13 67L1072.53 67.9138L1072.54 67.9105L1072.55 67.907L1072.13 67ZM1080.73 59.8L1081.56 60.3463L1081.57 60.3382L1081.57 60.33L1080.73 59.8ZM1080.73 37.2L1079.88 37.73L1079.88 37.7382L1079.89 37.7463L1080.73 37.2ZM1072.13 30L1071.69 30.901L1071.71 30.9105L1071.73 30.9191L1072.13 30ZM1045.73 78.8H1075.93V76.8H1045.73V78.8ZM1075.11 78.3731L1120.71 143.573L1122.35 142.427L1076.75 77.2269L1075.11 78.3731ZM1121.53 142H1087.73V144H1121.53V142ZM1088.57 142.458L1046.57 77.2585L1044.89 78.3415L1086.89 143.542L1088.57 142.458ZM1013.93 3.99999H1042.53V1.99999H1013.93V3.99999ZM1041.53 2.99999V143H1043.53V2.99999H1041.53ZM1042.53 142H1013.93V144H1042.53V142ZM1014.93 143V2.99999H1012.93V143H1014.93ZM1032.33 27.4V2.99999H1030.33V27.4H1032.33ZM1031.33 3.99999H1060.93V1.99999H1031.33V3.99999ZM1060.93 3.99999C1071.88 3.99999 1081.13 5.84873 1088.69 9.50054L1089.56 7.69944C1081.66 3.88458 1072.1 1.99999 1060.93 1.99999V3.99999ZM1088.69 9.50054C1096.27 13.1594 1102.05 18.2369 1106.08 24.7269L1107.78 23.6731C1103.53 16.8298 1097.45 11.5072 1089.56 7.69944L1088.69 9.50054ZM1106.08 24.7269C1110.1 31.2143 1112.13 38.8264 1112.13 47.6H1114.13C1114.13 38.5069 1112.02 30.519 1107.78 23.6731L1106.08 24.7269ZM1112.13 47.6C1112.13 56.2368 1110.1 63.8534 1106.07 70.4806L1107.78 71.5194C1112.02 64.5466 1114.13 56.5632 1114.13 47.6H1112.13ZM1106.08 70.4731C1102.05 76.9631 1096.27 82.0406 1088.69 85.6994L1089.56 87.5006C1097.45 83.6928 1103.53 78.3702 1107.78 71.5269L1106.08 70.4731ZM1088.69 85.6994C1081.13 89.3513 1071.88 91.2 1060.93 91.2V93.2C1072.1 93.2 1081.66 91.3154 1089.56 87.5006L1088.69 85.6994ZM1060.93 91.2H1031.33V93.2H1060.93V91.2ZM1032.33 92.2V69.4H1030.33V92.2H1032.33ZM1031.33 70.4H1059.13V68.4H1031.33V70.4ZM1059.13 70.4C1064.29 70.4 1068.77 69.5844 1072.53 67.9138L1071.72 66.0862C1068.28 67.6156 1064.09 68.4 1059.13 68.4V70.4ZM1072.55 67.907C1076.43 66.1049 1079.45 63.5887 1081.56 60.3463L1079.89 59.2537C1078 62.1446 1075.29 64.4285 1071.71 66.093L1072.55 67.907ZM1081.57 60.33C1083.69 56.9462 1084.73 52.9558 1084.73 48.4H1082.73C1082.73 52.6442 1081.76 56.2538 1079.88 59.27L1081.57 60.33ZM1084.73 48.4C1084.73 43.8456 1083.69 39.9132 1081.56 36.6537L1079.89 37.7463C1081.76 40.6202 1082.73 44.1544 1082.73 48.4H1084.73ZM1081.57 36.67C1079.46 33.2836 1076.43 30.7548 1072.52 29.0809L1071.73 30.9191C1075.29 32.4452 1078 34.7164 1079.88 37.73L1081.57 36.67ZM1072.56 29.099C1068.79 27.2855 1064.3 26.4 1059.13 26.4V28.4C1064.08 28.4 1068.26 29.2479 1071.69 30.901L1072.56 29.099ZM1059.13 26.4H1031.33V28.4H1059.13V26.4Z" fill="white" mask="url(#path-1-outside-1_235_3)"/>
</svg>
